<?xml version="1.0" encoding="UTF-8" standalone="no"?><!DOCTYPE svg PUBLIC "-//W3C//DTD SVG 1.1//EN" "http://www.w3.org/Graphics/SVG/1.1/DTD/svg11.dtd"><svg width="100%" height="100%" viewBox="0 0 315 64" version="1.1" xmlns="http://www.w3.org/2000/svg" xmlns:xlink="http://www.w3.org/1999/xlink" xml:space="preserve" xmlns:serif="http://www.serif.com/" style="fill-rule:evenodd;clip-rule:evenodd;stroke-linecap:round;stroke-linejoin:round;stroke-miterlimit:1.5;"><rect x="76.437" y="34.76" width="141.254" height="4.025" style="fill:#e45756;"/><rect x="153.285" y="22.684" width="12.076" height="28.177" style="fill:#e45756;"/><rect x="119.069" y="26.709" width="68.431" height="20.127" style="fill:#e45756;fill-opacity:0.38;"/><text x="187.5px" y="15.681px" style="font-family:'ArialMT', 'Arial', sans-serif;font-size:12.228px;">Peak</text><text x="52.288px" y="23.385px" style="font-family:'ArialMT', 'Arial', sans-serif;font-size:12.228px;">Region</text><text x="209.37px" y="55.241px" style="font-family:'ArialMT', 'Arial', sans-serif;font-size:12.228px;">Wide peak</text><path d="M109.651,26.343l-2.196,5.77l-3.298,-5.219l5.494,-0.551Z"/><path d="M94.819,19.005c0,0 9.962,-1.445 12.196,8.712" style="fill:none;stroke:#000;stroke-width:1.22px;"/><path d="M166.451,14.555l-4.441,4.288l-0.766,-6.126l5.207,1.838Z"/><path d="M184.684,11.301c-4.543,0.051 -16.248,-6.175 -21.204,3.377" style="fill:none;stroke:#000;stroke-width:1.22px;"/><path d="M183.362,55.758l0.249,-6.168l4.786,3.9l-5.035,2.268Z"/><path d="M207.181,50.861c-6.626,0.037 -15.781,12.642 -21.755,2.756" style="fill:none;stroke:#000;stroke-width:1.22px;"/></svg>